<svg xmlns="http://www.w3.org/2000/svg" version="1.2" baseProfile="tiny-ps" viewBox="0 0 512 512">
<title>LotJitsu</title>
<desc>LotJitsu logo — a stack of auction lot tags forming the letter L</desc>
<rect width="512" height="512" fill="#ffffff"/>
<g transform="translate(36 102.67) scale(1.0216)">
<g transform="translate(-38.200679,406.147951) scale(0.100000,-0.100000)" fill="#5d6165" fill-rule="evenodd" stroke="none">
<path d="M2425 4021 c-94 -47 -115 -62 -352 -242 -204 -155 -823 -609 -1023
-750 -74 -53 -220 -156 -325 -230 -224 -158 -330 -255 -340 -313 -6 -29 -3
-49 13 -81 19 -40 31 -48 159 -113 158 -80 314 -149 743 -327 815 -340 984
-405 1049 -405 59 0 127 42 266 165 72 63 164 143 205 176 41 34 179 159 305
278 127 120 266 250 310 288 44 39 159 151 256 249 l176 179 7 79 c3 43 6 283
6 531 l0 453 -28 30 c-60 64 -71 65 -742 70 l-605 3 -80 -40z m889 -232 c59
-15 110 -59 141 -122 23 -49 25 -58 15 -105 -25 -116 -121 -186 -255 -186 -57
0 -80 5 -123 27 -72 38 -132 101 -133 141 -2 61 3 101 16 126 20 37 85 97 125
114 41 18 153 21 214 5z m-1037 -560 c174 -70 197 -81 201 -102 5 -27 -16 -46
-193 -180 -179 -135 -445 -353 -445 -366 0 -4 91 -43 203 -86 111 -42 242 -95
290 -118 73 -34 87 -44 85 -61 -3 -21 -155 -150 -216 -183 -31 -17 -35 -17
-100 0 -126 33 -875 345 -938 392 -18 13 -18 14 1 35 11 13 79 68 150 123 203
158 460 362 575 457 200 166 198 166 387 89z"/>
<path d="M4077 3523 c-4 -91 -7 -302 -7 -467 l0 -301 -358 -355 c-331 -328
-784 -764 -976 -938 -93 -85 -177 -132 -250 -139 -79 -8 -355 70 -521 146 -33
16 -85 36 -115 46 -30 10 -95 36 -145 57 -49 22 -166 68 -260 103 -93 35 -210
81 -260 103 -131 58 -355 133 -375 127 -24 -8 -50 -64 -57 -123 -5 -44 -3 -52
27 -86 49 -55 97 -79 295 -146 376 -127 1284 -409 1504 -466 134 -35 210 -33
292 8 52 26 97 65 242 212 99 100 200 208 225 240 26 32 115 132 197 220 83
89 172 188 200 221 27 33 102 116 165 185 207 223 330 380 366 465 11 28 14
112 14 442 0 236 -4 423 -10 442 -5 19 -20 45 -32 59 -26 28 -136 112 -148
112 -4 0 -10 -75 -13 -167z"/>
<path d="M4484 3159 c11 -60 8 -593 -3 -636 -6 -22 -28 -65 -49 -96 -35 -52
-245 -303 -362 -433 -30 -33 -102 -118 -158 -187 -57 -70 -169 -195 -248 -277
-80 -83 -142 -155 -140 -159 9 -14 88 -30 180 -37 82 -7 88 -6 150 25 49 24
74 44 102 84 21 29 61 77 90 109 28 31 83 98 122 150 40 51 94 120 121 153
210 253 372 477 392 544 7 23 9 143 7 337 l-3 301 -27 40 c-28 42 -104 97
-152 109 -28 7 -29 6 -22 -27z"/></g>
</g>
</svg>
